<svg width="200" height="200" viewBox="0 0 200 200" fill="none" xmlns="http://www.w3.org/2000/svg">
<rect width="200" height="200" rx="40" fill="url(#paint0_linear)"/>
<path d="M100 40C66.8629 40 40 66.8629 40 100C40 133.137 66.8629 160 100 160C133.137 160 160 133.137 160 100C160 66.8629 133.137 40 100 40Z" fill="white" fill-opacity="0.1"/>
<path d="M100 60C122.091 60 140 77.9086 140 100C140 122.091 122.091 140 100 140C77.9086 140 60 122.091 60 100C60 77.9086 77.9086 60 100 60Z" stroke="white" stroke-width="8"/>
<path d="M100 60V140M60 100H140" stroke="white" stroke-width="4" stroke-linecap="round"/>
<path d="M100 60C100 60 130 90 130 130" stroke="white" stroke-width="4" stroke-linecap="round"/>
<path d="M100 140C100 140 70 110 70 70" stroke="white" stroke-width="4" stroke-linecap="round"/>
<defs>
<linearGradient id="paint0_linear" x1="0" y1="0" x2="200" y2="200" gradientUnits="userSpaceOnUse">
<stop stop-color="#059669"/>
<stop offset="1" stop-color="#0891B2"/>
</linearGradient>
</defs>
</svg>
